<svg xmlns="http://www.w3.org/2000/svg" viewBox="0 0 240 240">
  <rect width="240" height="240" rx="32" fill="#fff1f2"/>
  <path d="M120 40c32 0 50 20 50 44 0 32-27 54-50 82-23-28-50-50-50-82 0-24 18-44 50-44Z" fill="#dc2626"/>
  <path d="M120 42c27 0 40 16 40 34 0 26-18 42-40 66-22-24-40-40-40-66 0-18 13-34 40-34Z" fill="#f87171" opacity="0.95"/>
  <circle cx="110" cy="80" r="6" fill="#ffffff" opacity="0.7"/>
  <path d="M120 110c10 8 18 18 18 34 0 16-12 26-18 30-6-4-18-14-18-30 0-16 8-26 18-34Z" fill="#b91c1c" opacity="0.8"/>
</svg>