<svg xmlns="http://www.w3.org/2000/svg" viewBox="0 0 240 240">
  <rect width="240" height="240" rx="32" fill="#ecfeff"/>
  <path d="M120 44c-22 36-28 66-26 102 2 28 10 50 26 70" stroke="#0f766e" stroke-width="20" fill="none" stroke-linecap="round"/>
  <path d="M120 44c22 36 28 66 26 102-2 28-10 50-26 70" stroke="#0b7285" stroke-width="20" fill="none" stroke-linecap="round"/>
  <g stroke="#0f766e" stroke-width="12" fill="none">
    <path d="M110 72c-8 22-10 52-8 82 2 24 6 50 10 72"/>
    <path d="M130 72c8 22 10 52 8 82-2 24-6 50-10 72"/>
  </g>
  <circle cx="120" cy="124" r="14" fill="#5eead4" opacity="0.9"/>
</svg>